<svg
  xmlns="http://www.w3.org/2000/svg"
  viewBox="0 0 64 64"
  role="img"
  aria-labelledby="nationalBirdIconTitle"
>
  <title id="nationalBirdIconTitle">National Bird Registry PH icon</title>
  <defs>
    <linearGradient id="registryWing" x1="14" x2="52" y1="10" y2="54">
      <stop offset="0" stop-color="#facc15" />
      <stop offset="0.36" stop-color="#38bdf8" />
      <stop offset="0.72" stop-color="#2563eb" />
      <stop offset="1" stop-color="#16a34a" />
    </linearGradient>
    <linearGradient id="registryBody" x1="18" x2="48" y1="8" y2="52">
      <stop offset="0" stop-color="#ffffff" />
      <stop offset="1" stop-color="#dbeafe" />
    </linearGradient>
  </defs>
  <rect width="64" height="64" rx="14" fill="#07142f" />
  <path
    d="M13 39.2c8.8-15.4 23.6-24.9 42-27.5-3.1 8.7-8.7 16.5-16.9 23.4-6.9 5.7-15.2 8.4-25.1 8.1Z"
    fill="url(#registryWing)"
  />
  <path
    d="M16.4 37.8c8.9-4.8 18.5-6.3 28.7-4.5-7.7 6.1-17.1 9.4-28.2 9.9-1.9.1-2.2-4.5-.5-5.4Z"
    fill="#e0f2fe"
    opacity=".9"
  />
  <path
    d="M12.6 37.4c4.7-9.3 12.7-15.2 24-17.7 4-.9 7.6 2.3 7.4 6.4-.3 5.8-5.4 10.9-13.4 13.3-5.8 1.7-11.8 1.1-18-.2Z"
    fill="url(#registryBody)"
  />
  <path
    d="M16.9 34.1c4.1-5.6 9.5-9 16.2-10.4 2.5-.5 4.7 1.1 5.1 3.5.6 3.6-3.3 7.3-9.4 8.9-3.9 1-7.8.4-11.9-2Z"
    fill="#0f3c88"
  />
  <path
    d="M13 39.2 7.2 42c-1.4.7-2.4-1.2-1.2-2.1l6.9-5.4 6.5 3.8-6.4.9Z"
    fill="#facc15"
  />
  <circle cx="29.6" cy="27.4" r="2.1" fill="#facc15" />
  <path
    d="m37.6 43.1 4.4 4.3 9.7-10.8"
    fill="none"
    stroke="#22c55e"
    stroke-linecap="round"
    stroke-linejoin="round"
    stroke-width="4.2"
  />
  <path
    d="M34.1 49.1h20.2"
    fill="none"
    stroke="#e2e8f0"
    stroke-linecap="round"
    stroke-width="2.8"
    opacity=".75"
  />
</svg>
